<mxfile host="app.diagrams.net" modified="2024-06-19T04:38:07.955Z" agent="Mozilla/5.0 (Windows NT 10.0; Win64; x64) AppleWebKit/537.36 (KHTML, like Gecko) Chrome/126.0.0.0 Safari/537.36" version="24.4.9" etag="mOpagEosHyyqbHtOL2aE" type="github">
  <diagram name="Page-1" id="CXqJ_xnzNqyITYZ4IxJV">
    <mxGraphModel>
      <root>
        <mxCell id="0" />
        <mxCell id="1" parent="0" />
      </root>
    </mxGraphModel>
  </diagram>
</mxfile>
